<?xml version="1.0" encoding="utf-8"?>
<!-- Generator: Adobe Illustrator 24.3.0, SVG Export Plug-In . SVG Version: 6.00 Build 0)  -->
<svg version="1.1" id="Layer_1" xmlns="http://www.w3.org/2000/svg" xmlns:xlink="http://www.w3.org/1999/xlink" x="0px" y="0px"
	 viewBox="0 0 700 700" style="enable-background:new 0 0 700 700;" xml:space="preserve">
<style type="text/css">
	.st0{fill:#999999;}
	.st1{fill:#7C7C7C;}
	.st2{fill:#6B6B6B;}
</style>
<path class="st0" d="M668.66,86.74v507.14c0,3.09-0.28,6.12-0.82,9.06c-0.07,0.36-0.14,0.73-0.21,1.09
	c-4.69,22.77-24.84,39.89-49.01,39.89H77.46c-24.75,0-45.32-17.98-49.33-41.59c-0.25-1.48-0.43-2.97-0.55-4.49
	c-0.11-1.31-0.16-2.63-0.16-3.96V86.74c0-27.64,22.41-50.04,50.04-50.04h541.16C646.26,36.7,668.66,59.1,668.66,86.74z"/>
<g>
	<path class="st1" d="M668.66,282.07l-1.03,321.96c-4.69,22.77-24.84,39.89-49.01,39.89H77.46c-24.75,0-45.32-17.98-49.33-41.59
		l2.39-179.03c1.53-1.5,4.42-2.43,6.25-3.55c2.72-1.66,5.15-3.63,7.79-5.41c5.85-3.94,11.71-8.1,18.27-10.78
		c6.66-2.73,13.87-3.64,20.74-5.62c7.99-2.29,16-4.47,24.05-6.57c12.37-3.24,23.55-7.83,35.28-12.84c8.89-3.8,18.28-6.16,27.61-8.59
		c4.89-1.28,9.89-2.32,14.9-2.96c5.05-0.65,10.03-0.07,15.05-0.56c5.17-0.5,10.21-2.34,14.94-4.42c3.85-1.7,7.26-4.66,11.29-5.8
		c2.32-0.65,4.46-0.81,6.63-1.92c2.42-1.25,4.54-2.6,6.73-4.18c1.74-1.25,3.97-3.31,5.98-3.97c1.28-0.41,2.7-0.25,4.04-0.61
		c2.73-0.73,4.13-2.29,6.21-4.08c1.83-1.59,3.99-2.65,6.17-3.69c3.36-1.59,5.34-3.83,8.25-6c2.12-1.6,4.71-2.68,6.98-4.04
		c2.57-1.54,5.17-3.89,8-4.92c2.26-0.83,4.7-0.57,7.07-0.51c4.26,0.12,7.38,0.26,10.72-2.72c2.76-2.46,5.76-4.56,8.7-6.77
		c2.29-1.72,5.18-3.26,6.36-5.99c1.11-2.56,1.85-5.27,4.22-7.13c2.93-2.31,9.31-1.13,12.95-1.1c6.2,0.04,11.82-1.67,17.89-2.12
		c3.31-0.25,6.68,0.19,9.99,0.09c2.46-0.09,5.4-1.64,7.76-0.98c1.69,0.48,2.58,2.26,4.23,2.85c2.02,0.72,4.8,0.29,6.98,0.66
		c6.53,1.12,13.76,0.85,20.32,0.05c3.82-0.47,7.58-0.81,11.25-2.03c3.44-1.15,6.01-3.31,9.2-4.85c4.85-2.34,10.75,0.17,15.78-2.1
		c2.29-1.03,3.2-2.88,4.77-4.76c2.09-2.5,4.63-3.99,7.75-4.83c7.5-2.01,15.88,1.23,23.24-1.03c2.24-0.69,4.22-1.43,6.58-1.84
		c2.7-0.48,6.07-0.42,8.53-1.75c3.96-2.15,6.18-6.63,8.56-10.16c2.91-4.33,7.93-5.91,11.12-9.67c3.01-3.55,6.03-8.7,10.62-10.11
		c2.03-0.63,4.21-1.26,6.09-2.28c1.89-1.01,3.4-2.52,5.48-3.25c2.53-0.88,5.21-0.57,7.72-1.62c1.82-0.76,3.63-1.97,5.18-3.17
		c3.28-2.55,5.79-7.15,9.62-8.77c1.91-0.81,3.57-0.35,5.5-0.47c1.58-0.1,3.02-0.78,4.59-0.98c1.41-0.18,2.73,0,4.11-0.29
		c1.92-0.42,3.76-1.31,5.75-1.66c2.97-0.51,10.42-1.33,12.98,0.68c1.7,1.34,2.6,4.55,3.61,6.39c1.66,3.03,3.3,7.09,5.54,9.66
		c3.09,3.54,8.26,3.21,11.42,6.73c2.62,2.93,3.73,7.5,6.75,9.93c2.82,2.26,7.07,2.44,10.27,4.03c2.9,1.43,5.55,3.23,8.48,4.7
		c2.96,1.49,6.52,1.46,9.7,2.16c4.65,1.04,5.52,4.97,8.16,8.15c2.56,3.09,4.77,1.34,8.16,2.05
		C662.95,278.72,664.43,282.6,668.66,282.07z"/>
</g>
<g>
	<path class="st2" d="M667.84,602.94c-4.26,23.31-24.67,40.98-49.22,40.98H77.46c-26.3,0-47.87-20.3-49.88-46.08l-0.16-251.76
		c7.21-1.33,12.09-5.59,17.2-10.36c3.27-3.06,6.53-5.99,10.01-8.78c1.6-1.29,2.88-3.79,4.78-4.55c2.21-0.88,3.34-0.25,5.2-2.4
		c2.68-3.08,2.91-6.87,6.08-9.71c3.38-3.05,6.46-5.68,10.87-7.09c4.4-1.41,5.36-1.95,6.45-6.52c0.97-4.03,1.37-7.89,4.83-10.53
		c1.91-1.46,3.83-2.64,5.94-3.74c2.3-1.21,3.41-2.96,5.19-4.75c3.24-3.28,7.56-6.29,10.1-10.22c2.4-3.72,2.35-7.84,6.11-10.94
		c1.4-1.15,2.83-2.06,4.15-3.31c2.11-2,3.27-2.1,6.19-2.06c2.04,0.02,4.4-0.48,6.27,0.53c2.11,1.15,1.72,2.96,2.8,4.87
		c2.61,4.62,10.87,6.86,15.74,7.78c2.59,0.49,5.85,0.89,8.19,2.25c2.71,1.58,2.54,4.54,3.3,7.32c0.77,2.78,2.34,5.24,4.15,7.41
		c1.36,1.62,1.89,3.29,2.97,4.93c1.45,2.21,4.57,3.12,6.61,4.74c2.08,1.65,4.39,2.84,6.46,4.41c2.32,1.76,3.62,4.82,4.88,7.35
		c2.41,4.81,4.87,9.19,8.52,13.19c1.38,1.51,2.48,3.24,3.86,4.69c1.9,1.99,4.43,3.22,6.2,5.41c2.25,2.79,3.36,6.08,5.59,8.9
		c3.48,4.39,7.49,7.28,12.89,9.05c2.02,0.67,4.19,0.78,6.15,1.59c2.39,0.98,4.19,3.04,6.11,4.72c6.05,5.27,11.55,8.9,19.64,9.95
		c6.74,0.87,13.86-0.23,20.15,3.12c5.65,3.01,8.58,9.59,14.16,12.62c2.37,1.28,4.44,0.93,7.11,0.91c3.98-0.03,7.14,0.4,10.76,2.1
		c4.13,1.95,7.65,5.02,11.6,7.3c3.13,1.8,6.79,2.98,9.77,5.02c3.44,2.36,6.57,5.04,10.11,7.32c2.61,1.68,4.22,4.21,6.5,6.25
		c3.06,2.74,7.12,3.06,11.04,3.55c2.72,0.34,5.33,0.01,7.63,1.39c1.76,1.06,3.75,3.48,5.29,4.77c2.72,2.27,5.52,4.44,8.16,6.8
		c2.49,2.23,4.83,4.78,7.63,6.62c2.8,1.83,6.1,1.6,9.35,2.03c2.67,0.35,5.89-0.04,8.41,0.6c3.82,0.96,6.36,4.24,8.15,7.52
		c1.31,2.41,1.91,5.41,3.55,7.69c1.92,2.65,5.08,4.56,7.78,6.29c3.77,2.4,7.78,3.51,11.84,5.21c3.3,1.37,6.13,2.65,8.92,4.89
		c4.69,3.76,10.42,5.95,15.18,9.9c10.94,9.07,25.29,13.35,39.14,15.63c6.5,1.07,12.67,2.37,18.9,4.55
		c7.44,2.61,12.51,7.37,18.97,11.6c7.41,4.86,17.49,5.96,26.1,6.85c10.36,1.06,20.7,1.24,31.1,1.24c7.38-0.01,14.48,0.71,21.52-1.95
		c7.34-2.76,14.27-6.56,21.13-10.31c7.98-4.37,19.78-6.31,27.86-10.45L667.84,602.94z"/>
</g>
</svg>
