<svg id="Layer_1"  xmlns="http://www.w3.org/2000/svg" viewBox="0 0 373.13 373.13"><defs><style>.cls-1{fill:#2c203f;}.cls-1,.cls-2{stroke:#000;stroke-miterlimit:10;}.cls-2{fill:#413356;}</style></defs><path class="cls-1" d="M536.07,350A185.57,185.57,0,0,1,476,486.93v0A186.09,186.09,0,0,1,224,487v0A185.57,185.57,0,0,1,163.93,350c0-102.75,83.32-186.07,186.07-186.07S536.07,247.25,536.07,350Z" transform="translate(-163.43 -163.43)"/><ellipse class="cls-2" cx="186.57" cy="165.83" rx="81.51" ry="99.41"/><path class="cls-2" d="M476,486.93v0A186.09,186.09,0,0,1,224,487v0c.38-39.76,75.24-58.25,75.24-58.25C319.63,447.81,350,445.81,350,445.81s30.39,2,50.73-17.13C400.73,428.68,475.61,447.17,476,486.93Z" transform="translate(-163.43 -163.43)"/></svg>